<mxfile host="app.diagrams.net" modified="2022-04-29T15:23:19.897Z" agent="5.0 (X11)" etag="9p8Vkt8_tYqZ-b9Jdm6F" version="16.5.5" type="github">
  <diagram id="y3ov4KEdgeqS82IrDY-E" name="Page-1">
    <mxGraphModel dx="1422" dy="1124" grid="1" gridSize="10" guides="1" tooltips="1" connect="1" arrows="1" fold="1" page="1" pageScale="1" pageWidth="1654" pageHeight="1169" math="0" shadow="0">
      <root>
        <mxCell id="0" />
        <mxCell id="1" parent="0" />
        <mxCell id="1JpoMMPalMAsRspwO1MH-1" value="" style="rounded=0;whiteSpace=wrap;html=1;" vertex="1" parent="1">
          <mxGeometry x="260" y="150" width="120" height="60" as="geometry" />
        </mxCell>
        <mxCell id="1JpoMMPalMAsRspwO1MH-2" value="" style="rounded=0;whiteSpace=wrap;html=1;" vertex="1" parent="1">
          <mxGeometry x="580" y="320" width="120" height="60" as="geometry" />
        </mxCell>
        <mxCell id="1JpoMMPalMAsRspwO1MH-3" value="" style="rounded=0;whiteSpace=wrap;html=1;" vertex="1" parent="1">
          <mxGeometry x="370" y="540" width="120" height="60" as="geometry" />
        </mxCell>
      </root>
    </mxGraphModel>
  </diagram>
</mxfile>
